<svg width="1200" height="630" viewBox="0 0 1200 630" fill="none" xmlns="http://www.w3.org/2000/svg"><path fill="#F26777" d="M0 0h1200v630H0z"/><path d="M435.616 525.592c0-.576-.288-.864-.864-.864h-19.44v-32.76c0-.576-.288-.864-.864-.864h-6.408c-.576 0-.864.288-.864.864v39.168c0 .576.288.864.864.864h26.712c.576 0 .864-.288.864-.864v-5.544zm30.907-34.992c-11.52 0-20.88 9.36-20.88 20.88s9.36 20.88 20.88 20.88 20.88-9.36 20.88-20.88-9.36-20.88-20.88-20.88zm-.072 34.56c-7.488 0-12.672-5.976-12.672-13.464 0-7.416 5.184-13.536 12.672-13.536s12.816 6.12 12.816 13.536c0 7.488-5.328 13.464-12.816 13.464zm69.258 6.84c.576 0 .864-.288.864-.864v-20.448c0-.576-.288-.864-.864-.864h-14.616c-.576 0-.864.288-.864.864v5.544c0 .576.288.864.864.864h7.344v5.04c-2.448 2.016-5.328 3.024-8.712 3.024-7.488 0-12.672-5.976-12.672-13.464 0-7.416 5.184-13.536 12.672-13.536 3.744 0 6.84 1.296 9.432 3.672.216.216.504.36.792.36.216 0 .36-.072.504-.216l4.104-3.96c.216-.216.288-.432.288-.648 0-.216-.072-.432-.288-.72-3.744-3.744-9-6.048-14.76-6.048-11.52 0-20.88 9.36-20.88 20.88s9.36 20.88 20.88 20.88c3.96 0 7.56-1.008 10.728-2.952l1.728 2.088c.36.36.648.504 1.008.504h2.448z" fill="#FFF2E5"/><path d="M592.52 504.28c.072-.072.072-.216.072-.36 0-.504-.288-.72-.792-.72h-22.392c-.576 0-.864.288-.864.864v5.688c0 .576.288.864.864.864h10.584l-11.304 20.304c-.072.072-.072.216-.072.36 0 .504.288.72.792.72H591.8c.576 0 .864-.288.864-.864v-5.544c0-.576-.288-.864-.864-.864h-10.512l11.232-20.448zm38.378 14.904c0-1.224.072-1.008.072-2.016 0-9.216-6.12-14.328-13.968-14.328-9.792 0-13.896 6.984-13.896 14.976 0 10.152 6.768 14.544 15.048 14.544 3.816 0 7.992-.648 10.512-3.816.144-.216.216-.432.216-.792 0-.36-.072-.576-.216-.72l-2.16-3.6a.654.654 0 00-.504-.216c-.288 0-.648.144-1.08.432-1.512 1.368-4.752 1.944-6.84 1.944s-6.768-.72-6.768-5.544h18.72c.576 0 .864-.288.864-.864zm-13.752-8.784c2.16 0 5.904 1.08 5.904 4.536h-11.736c0-3.456 3.6-4.536 5.832-4.536zm46.731 20.736c.216.576.504.864 1.008.864h4.032c.576 0 .864-.288.864-.864v-27.072c0-.576-.288-.864-.864-.864h-6.408c-.576 0-.864.288-.864.864v14.616c0 3.528-1.44 6.48-5.112 6.48-5.112 0-5.544-2.952-5.544-6.48v-14.616c0-.576-.288-.864-.864-.864h-6.408c-.576 0-.864.288-.864.864v15.408c0 6.84 3.6 12.888 11.736 12.888 2.808 0 5.616-.432 9-3.6l.288 2.376zm33.113-5.976c-3.672 0-6.48-3.312-6.48-7.632s2.808-7.272 6.48-7.272c3.672 0 6.768 2.88 6.768 7.272s-3.096 7.632-6.768 7.632zm14.904-33.192c0-.576-.288-.864-.864-.864h-6.408c-.576 0-.864.288-.864.864v14.184c-2.736-3.096-6.264-3.312-7.704-3.312-7.92 0-13.68 6.552-13.68 14.616s5.616 14.904 13.248 14.904c3.312 0 8.28-1.296 9.864-4.464l.288 3.24c.216.576.576.864 1.152.864h4.104c.576 0 .864-.288.864-.864v-39.168zm27.623 10.872c-8.28 0-15.048 6.552-15.048 14.616s6.768 14.904 15.048 14.904c7.848 0 14.472-6.84 14.472-14.904s-6.624-14.616-14.472-14.616zm-.072 22.32c-3.744 0-6.84-3.24-6.84-7.632 0-4.536 3.096-7.128 6.84-7.128 3.456 0 6.408 2.736 6.408 7.128 0 4.392-2.952 7.632-6.408 7.632zm33.009-21.096c-.216-.576-.576-.864-1.008-.864h-3.96c-.576 0-.864.288-.864.864v27.072c0 .576.288.864.864.864h6.408c.576 0 .864-.288.864-.864v-14.4c0-3.528 1.44-6.48 5.112-6.48 5.112 0 5.544 2.952 5.544 6.48v14.4c0 .576.288.864.864.864h6.408c.576 0 .864-.288.864-.864v-15.408c0-6.84-3.6-12.888-11.736-12.888-2.808 0-5.616.432-9 3.6l-.36-2.376z" fill="#000"/><path d="M451.763 271.985s-35.052 95.644 39.391 133.689c74.443 38.044 133.122 19.237 162.747-5.924 29.624-25.16 59.836-106.997-2.287-173.078-62.123-66.08-134.399-44.73-161.8-26.432-27.402 18.299-37.518 46.911-38.051 71.745z" fill="#FFF2E5"/><path d="M664.484 148.124s13.618-11.36 13.792-19.591c.174-8.23-5.112-31.328-39.394-31.328-34.281 0-133.603 15.836-173.342 91.061-39.739 75.225-21.733 117.541-21.733 117.541a111.157 111.157 0 019.072-30.933c2.542-17.04 9.334-49.125 38.056-71.744 16.131-7.879 28.968-25.925 94.036-11.183 65.067 14.741 87.829 66.423 87.829 66.423s22.474 37.779 11.324 88.993c-11.149 51.214-86.94 88.236-86.94 88.236s45.872.772 71.284-8.321c25.411-9.094 80.143-52.724 86.16-142.222.235-107.724-90.144-136.932-90.144-136.932z" fill="#F26777"/><path d="M618.3 288.585s20.759-7.837 6.392-12.545c-14.368-4.708-32.282-5.025-30.803 3.416 1.479 8.44 11.787 12.752 24.411 9.129zM484.691 261.186c-11.928 1.084.797 13.443.797 13.443 8.087 6.428 16.931 4.759 20.611-2.921 3.681-7.679-9.483-11.608-21.408-10.522z" fill="#F26777"/><path d="M767.281 266.117c-.558-3.822-.663-7.725-1.609-11.485l-2.573-11.341c-4.289-14.858-10.151-29.543-19.141-42.371l-3.156-4.933-3.692-4.556c-2.491-3.012-4.884-6.115-7.479-9.03-5.7-5.346-11.033-11.159-17.565-15.501-9.372-7.564-20.021-13.103-30.956-17.826a42.02 42.02 0 002.824-16.174 39.13 39.13 0 00-10.982-25.496 48.604 48.604 0 00-22.246-13.159 47.515 47.515 0 00-24.632-.277 3.513 3.513 0 00.709 6.896l.118.008a49.462 49.462 0 0119.501 5.066 40 40 0 0114.44 11.801 23.828 23.828 0 015.009 15.403c-.094 5.228-2.347 10.389-5.745 15.311l-6.7 9.704 11.32 4.774c12.479 5.265 24.932 10.972 35.252 19.707 5.637 3.753 9.927 9.032 14.949 13.486 2.241 2.496 4.294 5.167 6.464 7.732l3.225 3.881 2.728 4.25c7.905 10.965 12.849 23.736 17.125 36.541l2.533 9.866c.956 3.271 1.089 6.707 1.69 10.057 1.326 6.711 1.118 13.569 1.506 20.393a151.776 151.776 0 01-23.182 78.1 168.384 168.384 0 01-26.523 32.042 162.531 162.531 0 01-34.164 24.371l-.026.014a4.472 4.472 0 003.725 8.116c27.99-10.925 52.58-30.971 69.763-56.078a112.198 112.198 0 006.015-9.721c1.888-3.313 3.889-6.585 5.68-9.962l4.616-10.515c.744-1.763 1.566-3.503 2.245-5.289l1.733-5.482c1.136-3.663 2.346-7.31 3.394-10.999l2.288-11.294c.346-1.893.824-3.761 1.056-5.668l.552-5.742c.312-3.833.835-7.664.955-11.51-.173-7.704.194-15.454-1.044-23.11z" fill="#000"/><path d="M689.624 358.755a143.306 143.306 0 005.301-49.706 147.112 147.112 0 00-11.964-48.477 125.256 125.256 0 00-28.784-41.195 144.76 144.76 0 00-41.76-27.453c-30.488-13.055-65.501-17.008-97.756-6.832-15.933 5.172-31.051 14.213-42.062 27.025a102.81 102.81 0 00-22.058 43.896 3.587 3.587 0 002.487 4.273 3.585 3.585 0 004.386-2.279c5.008-14.514 12.496-28.1 23.032-38.6a85.202 85.202 0 0138.073-21.584c14.271-3.976 29.441-4.769 44.304-3.131a141.014 141.014 0 0143.142 11.833c27.325 12.174 50.363 33.323 62.213 60.598a131.172 131.172 0 0110.874 43.135 127.719 127.719 0 01-4.49 44.181c-3.988 14.302-10.853 27.603-20.484 38.352a96.936 96.936 0 01-36.276 23.7c-13.876 5.272-28.975 7.485-44.007 7.751a143.603 143.603 0 01-44.729-6.204 134.8 134.8 0 01-40.328-19.815 102.654 102.654 0 01-28.968-33.574c-6.868-13.242-10.224-28.258-10.815-43.444a151.937 151.937 0 015.774-45.492 3.977 3.977 0 00-7.601-2.333 154.142 154.142 0 00-7.913 48.012c.135 16.377 3.272 33.084 10.536 48.206 7.544 14.884 18.109 28.445 31.409 38.551a147.616 147.616 0 0043.959 22.639 157.357 157.357 0 0048.727 7.658c16.502.004 33.22-2.114 49.095-7.797a109.622 109.622 0 0042.541-27.469c11.573-12.763 19.553-28.312 24.142-44.425zM453.241 215.116a4.868 4.868 0 006.657-1.741l.016-.029a294.011 294.011 0 0125.423-36.91 224.868 224.868 0 0131.176-31.646 203.544 203.544 0 0179.191-40.214 4.352 4.352 0 003.214-4.996 4.352 4.352 0 00-4.762-3.553 166.848 166.848 0 00-46.074 12.23 184.845 184.845 0 00-41.256 24.48 179.905 179.905 0 00-33.606 34.312 148.931 148.931 0 00-22.148 42.36 4.865 4.865 0 002.169 5.707z" fill="#000"/><path d="M506.245 310.155a4.51 4.51 0 003.274-1.866c1.73-2.539-.122-5.631-.818-6.795-3.724-6.227-14.57-13.391-29.591-14.408-5.072-.341-10.31-.696-11.779 2.934v.006c-1.656 4.146 4.413 9.082 9.666 12.435a42.7 42.7 0 00.769 24.027c2.091 6.074 6.679 13.28 11.396 15.305a6.33 6.33 0 002.501.551 4.962 4.962 0 002.068-.444c2.899-1.326 3.662-4.997 4.398-8.55a45.433 45.433 0 00-1.831-24.441c1.956.338 4.103.691 6.498 1.084 1.136.221 2.298.276 3.449.162zM633.769 327.728a5.46 5.46 0 003.856-1.749c2.278-2.678.127-6.355-.579-7.559-4.24-7.289-17.451-16.008-36.428-17.911-6.526-.663-12.685-1.276-14.644 2.486-1.618 3.11 1.308 6.854 5.364 10.214a47.72 47.72 0 00.863 26.849c2.343 6.79 7.47 14.845 12.742 17.103a7.032 7.032 0 002.791.616 5.5 5.5 0 002.311-.496c3.238-1.48 4.092-5.585 4.915-9.555a51.676 51.676 0 00-.777-23.424c4.126.947 9.112 1.893 15.419 3.081 1.367.299 2.769.415 4.167.345zM584.992 371.579c-3.202-.368-5.443 1.27-8.109 2.036a68.313 68.313 0 01-7.934 2.205 75.42 75.42 0 01-32.973-.64 83.108 83.108 0 01-16.022-5.479 3.622 3.622 0 00-3.347 6.415 82.33 82.33 0 0035.425 11.21 78.5 78.5 0 0018.954-.947 79.347 79.347 0 009.278-2.198c2.977-1.042 6.276-1.539 8.468-4.355a5.108 5.108 0 00-3.449-8.209l-.291-.038z" fill="#000"/></svg>