<svg width="1200" height="630" viewBox="0 0 1200 630" fill="none" xmlns="http://www.w3.org/2000/svg">
<rect width="1200" height="630" fill="#F26777"/>
<path d="M435.616 525.592C435.616 525.016 435.328 524.728 434.752 524.728H415.312V491.968C415.312 491.392 415.024 491.104 414.448 491.104H408.04C407.464 491.104 407.176 491.392 407.176 491.968V531.136C407.176 531.712 407.464 532 408.04 532H434.752C435.328 532 435.616 531.712 435.616 531.136V525.592ZM466.523 490.6C455.003 490.6 445.643 499.96 445.643 511.48C445.643 523 455.003 532.36 466.523 532.36C478.043 532.36 487.403 523 487.403 511.48C487.403 499.96 478.043 490.6 466.523 490.6ZM466.451 525.16C458.963 525.16 453.779 519.184 453.779 511.696C453.779 504.28 458.963 498.16 466.451 498.16C473.939 498.16 479.267 504.28 479.267 511.696C479.267 519.184 473.939 525.16 466.451 525.16ZM535.709 532C536.285 532 536.573 531.712 536.573 531.136V510.688C536.573 510.112 536.285 509.824 535.709 509.824H521.093C520.517 509.824 520.229 510.112 520.229 510.688V516.232C520.229 516.808 520.517 517.096 521.093 517.096H528.437V522.136C525.989 524.152 523.109 525.16 519.725 525.16C512.237 525.16 507.053 519.184 507.053 511.696C507.053 504.28 512.237 498.16 519.725 498.16C523.469 498.16 526.565 499.456 529.157 501.832C529.373 502.048 529.661 502.192 529.949 502.192C530.165 502.192 530.309 502.12 530.453 501.976L534.557 498.016C534.773 497.8 534.845 497.584 534.845 497.368C534.845 497.152 534.773 496.936 534.557 496.648C530.813 492.904 525.557 490.6 519.797 490.6C508.277 490.6 498.917 499.96 498.917 511.48C498.917 523 508.277 532.36 519.797 532.36C523.757 532.36 527.357 531.352 530.525 529.408L532.253 531.496C532.613 531.856 532.901 532 533.261 532H535.709Z" fill="#FFF2E5"/>
<path d="M592.52 504.28C592.592 504.208 592.592 504.064 592.592 503.92C592.592 503.416 592.304 503.2 591.8 503.2H569.408C568.832 503.2 568.544 503.488 568.544 504.064V509.752C568.544 510.328 568.832 510.616 569.408 510.616H579.992L568.688 530.92C568.616 530.992 568.616 531.136 568.616 531.28C568.616 531.784 568.904 532 569.408 532H591.8C592.376 532 592.664 531.712 592.664 531.136V525.592C592.664 525.016 592.376 524.728 591.8 524.728H581.288L592.52 504.28ZM630.898 519.184C630.898 517.96 630.97 518.176 630.97 517.168C630.97 507.952 624.85 502.84 617.002 502.84C607.21 502.84 603.106 509.824 603.106 517.816C603.106 527.968 609.874 532.36 618.154 532.36C621.97 532.36 626.146 531.712 628.666 528.544C628.81 528.328 628.882 528.112 628.882 527.752C628.882 527.392 628.81 527.176 628.666 527.032L626.506 523.432C626.362 523.288 626.218 523.216 626.002 523.216C625.714 523.216 625.354 523.36 624.922 523.648C623.41 525.016 620.17 525.592 618.082 525.592C615.994 525.592 611.314 524.872 611.314 520.048H630.034C630.61 520.048 630.898 519.76 630.898 519.184ZM617.146 510.4C619.306 510.4 623.05 511.48 623.05 514.936H611.314C611.314 511.48 614.914 510.4 617.146 510.4ZM663.877 531.136C664.093 531.712 664.381 532 664.885 532H668.917C669.493 532 669.781 531.712 669.781 531.136V504.064C669.781 503.488 669.493 503.2 668.917 503.2H662.509C661.933 503.2 661.645 503.488 661.645 504.064V518.68C661.645 522.208 660.205 525.16 656.533 525.16C651.421 525.16 650.989 522.208 650.989 518.68V504.064C650.989 503.488 650.701 503.2 650.125 503.2H643.717C643.141 503.2 642.853 503.488 642.853 504.064V519.472C642.853 526.312 646.453 532.36 654.589 532.36C657.397 532.36 660.205 531.928 663.589 528.76L663.877 531.136ZM696.99 525.16C693.318 525.16 690.51 521.848 690.51 517.528C690.51 513.208 693.318 510.256 696.99 510.256C700.662 510.256 703.758 513.136 703.758 517.528C703.758 521.92 700.662 525.16 696.99 525.16ZM711.894 491.968C711.894 491.392 711.606 491.104 711.03 491.104H704.622C704.046 491.104 703.758 491.392 703.758 491.968V506.152C701.022 503.056 697.494 502.84 696.054 502.84C688.134 502.84 682.374 509.392 682.374 517.456C682.374 525.52 687.99 532.36 695.622 532.36C698.934 532.36 703.902 531.064 705.486 527.896L705.774 531.136C705.99 531.712 706.35 532 706.926 532H711.03C711.606 532 711.894 531.712 711.894 531.136V491.968ZM739.517 502.84C731.237 502.84 724.469 509.392 724.469 517.456C724.469 525.52 731.237 532.36 739.517 532.36C747.365 532.36 753.989 525.52 753.989 517.456C753.989 509.392 747.365 502.84 739.517 502.84ZM739.445 525.16C735.701 525.16 732.605 521.92 732.605 517.528C732.605 512.992 735.701 510.4 739.445 510.4C742.901 510.4 745.853 513.136 745.853 517.528C745.853 521.92 742.901 525.16 739.445 525.16ZM772.454 504.064C772.238 503.488 771.878 503.2 771.446 503.2H767.486C766.91 503.2 766.622 503.488 766.622 504.064V531.136C766.622 531.712 766.91 532 767.486 532H773.894C774.47 532 774.758 531.712 774.758 531.136V516.736C774.758 513.208 776.198 510.256 779.87 510.256C784.982 510.256 785.414 513.208 785.414 516.736V531.136C785.414 531.712 785.702 532 786.278 532H792.686C793.262 532 793.55 531.712 793.55 531.136V515.728C793.55 508.888 789.95 502.84 781.814 502.84C779.006 502.84 776.198 503.272 772.814 506.44L772.454 504.064Z" fill="black"/>
<path d="M451.763 271.985C451.763 271.985 416.711 367.629 491.154 405.674C565.597 443.718 624.276 424.911 653.901 399.75C683.525 374.59 713.737 292.753 651.614 226.672C589.491 160.592 517.215 181.942 489.814 200.24C462.412 218.539 452.296 247.151 451.763 271.985Z" fill="#FFF2E5"/>
<path d="M664.484 148.124C664.484 148.124 678.102 136.764 678.276 128.533C678.45 120.303 673.164 97.2053 638.882 97.2053C604.601 97.2053 505.279 113.041 465.54 188.266C425.801 263.491 443.807 305.807 443.807 305.807C445.312 295.11 448.368 284.689 452.879 274.874C455.421 257.834 462.213 225.749 490.935 203.13C507.066 195.251 519.903 177.205 584.971 191.947C650.038 206.688 672.8 258.37 672.8 258.37C672.8 258.37 695.274 296.149 684.124 347.363C672.975 398.577 597.184 435.599 597.184 435.599C597.184 435.599 643.056 436.371 668.468 427.278C693.879 418.184 748.611 374.554 754.628 285.056C754.863 177.332 664.484 148.124 664.484 148.124Z" fill="#F26777"/>
<path d="M618.3 288.585C618.3 288.585 639.059 280.748 624.692 276.04C610.324 271.332 592.41 271.015 593.889 279.456C595.368 287.896 605.676 292.208 618.3 288.585Z" fill="#F26777"/>
<path d="M484.691 261.186C472.763 262.27 485.488 274.629 485.488 274.629C493.575 281.057 502.419 279.388 506.099 271.708C509.78 264.029 496.616 260.1 484.691 261.186Z" fill="#F26777"/>
<path d="M767.281 266.117C766.723 262.295 766.618 258.392 765.672 254.632L763.099 243.291C758.81 228.433 752.948 213.748 743.958 200.92L740.802 195.987L737.11 191.431C734.619 188.419 732.226 185.316 729.631 182.401C723.931 177.055 718.598 171.242 712.066 166.9C702.694 159.336 692.045 153.797 681.11 149.074C683.106 143.921 684.065 138.425 683.934 132.9C683.512 123.345 679.606 114.275 672.952 107.404C666.86 101.09 659.173 96.5434 650.706 94.2451C642.662 91.9889 634.166 91.8932 626.074 93.9677C625.271 94.1863 624.571 94.6833 624.1 95.37C623.629 96.0567 623.417 96.8885 623.502 97.7169C623.587 98.5453 623.964 99.3165 624.565 99.893C625.166 100.469 625.952 100.814 626.783 100.864L626.901 100.872C633.68 101.205 640.318 102.929 646.402 105.938C652.078 108.679 657.026 112.723 660.842 117.739C664.259 122.131 666.031 127.58 665.851 133.142C665.757 138.37 663.504 143.531 660.106 148.453L653.406 158.157L664.726 162.931C677.205 168.196 689.658 173.903 699.978 182.638C705.615 186.391 709.905 191.67 714.927 196.124C717.168 198.62 719.221 201.291 721.391 203.856L724.616 207.737L727.344 211.987C735.249 222.952 740.193 235.723 744.469 248.528L747.002 258.394C747.958 261.665 748.091 265.101 748.692 268.451C750.018 275.162 749.81 282.02 750.198 288.844C749.733 316.503 741.716 343.51 727.016 366.944C719.533 378.68 710.624 389.443 700.493 398.986C690.206 408.552 678.722 416.744 666.329 423.357L666.303 423.371C665.293 423.905 664.526 424.806 664.159 425.888C663.793 426.969 663.854 428.151 664.331 429.189C664.807 430.227 665.663 431.044 666.722 431.471C667.782 431.898 668.965 431.904 670.028 431.487C698.018 420.562 722.608 400.516 739.791 375.409C741.96 372.273 743.967 369.029 745.806 365.688C747.694 362.375 749.695 359.103 751.486 355.726L756.102 345.211C756.846 343.448 757.668 341.708 758.347 339.922L760.08 334.44C761.216 330.777 762.426 327.13 763.474 323.441L765.762 312.147C766.108 310.254 766.586 308.386 766.818 306.479L767.37 300.737C767.682 296.904 768.205 293.073 768.325 289.227C768.152 281.523 768.519 273.773 767.281 266.117Z" fill="black"/>
<path d="M689.624 358.755C694.289 342.625 696.084 325.801 694.925 309.049C693.729 292.327 689.682 275.932 682.961 260.572C676.248 245.037 666.456 231.023 654.177 219.377C641.954 207.874 627.823 198.585 612.417 191.924C581.929 178.869 546.916 174.916 514.661 185.092C498.728 190.264 483.61 199.305 472.599 212.117C461.807 224.752 454.238 239.814 450.541 256.013C450.328 256.908 450.467 257.851 450.93 258.647C451.392 259.442 452.144 260.029 453.028 260.286C453.911 260.542 454.86 260.448 455.677 260.024C456.494 259.6 457.116 258.878 457.414 258.007C462.422 243.493 469.91 229.907 480.446 219.407C491.041 209.02 504.165 201.58 518.519 197.823C532.79 193.847 547.96 193.054 562.823 194.692C577.742 196.316 592.306 200.31 605.965 206.525C633.29 218.699 656.328 239.848 668.178 267.123C674.232 280.778 677.91 295.366 679.052 310.258C680.147 325.134 678.627 340.087 674.562 354.439C670.574 368.741 663.709 382.042 654.078 392.791C643.929 403.327 631.527 411.43 617.802 416.491C603.926 421.763 588.827 423.976 573.795 424.242C558.652 424.546 543.556 422.452 529.066 418.038C514.61 413.736 500.978 407.038 488.738 398.223C476.751 389.276 466.865 377.817 459.77 364.649C452.902 351.407 449.546 336.391 448.955 321.205C448.567 305.836 450.514 290.497 454.729 275.713C455.026 274.708 454.914 273.627 454.419 272.705C453.923 271.782 453.084 271.092 452.083 270.785C451.081 270.478 449.999 270.578 449.072 271.064C448.144 271.55 447.445 272.382 447.128 273.38C441.965 288.864 439.294 305.07 439.215 321.392C439.35 337.769 442.487 354.476 449.751 369.598C457.295 384.482 467.86 398.043 481.16 408.149C494.436 418.113 509.297 425.767 525.119 430.788C540.858 435.886 557.302 438.471 573.846 438.446C590.348 438.45 607.066 436.332 622.941 430.649C639.071 424.938 653.64 415.531 665.482 403.18C677.055 390.417 685.035 374.868 689.624 358.755Z" fill="black"/>
<path d="M453.241 215.116C454.355 215.768 455.682 215.95 456.93 215.624C458.179 215.297 459.246 214.488 459.898 213.375L459.914 213.346C467.437 200.414 475.936 188.074 485.337 176.436C494.659 164.884 505.102 154.284 516.513 144.79C539.628 125.719 566.669 111.988 595.704 104.576C596.773 104.305 597.699 103.638 598.295 102.711C598.892 101.784 599.114 100.665 598.918 99.5795C598.722 98.4946 598.121 97.5244 597.237 96.865C596.353 96.2057 595.252 95.9061 594.156 96.0268C578.292 97.8771 562.776 101.996 548.082 108.257C533.325 114.59 519.456 122.82 506.826 132.737C494.141 142.621 482.838 154.161 473.22 167.049C463.604 179.885 456.126 194.189 451.072 209.409C450.729 210.465 450.757 211.607 451.151 212.645C451.545 213.683 452.283 214.555 453.241 215.116V215.116Z" fill="black"/>
<path d="M506.245 310.155C506.893 310.099 507.521 309.903 508.087 309.581C508.652 309.259 509.141 308.818 509.519 308.289C511.249 305.75 509.397 302.658 508.701 301.494C504.977 295.267 494.131 288.103 479.11 287.086C474.038 286.745 468.8 286.39 467.331 290.02V290.026C465.675 294.172 471.744 299.108 476.997 302.461C474.947 310.378 475.214 318.718 477.766 326.488C479.857 332.562 484.445 339.768 489.162 341.793C489.95 342.145 490.801 342.333 491.663 342.344C492.377 342.346 493.082 342.195 493.731 341.9C496.63 340.574 497.393 336.903 498.129 333.35C499.769 325.189 499.136 316.735 496.298 308.909C498.254 309.247 500.401 309.6 502.796 309.993C503.932 310.214 505.094 310.269 506.245 310.155V310.155Z" fill="black"/>
<path d="M633.769 327.728C634.496 327.708 635.211 327.543 635.873 327.243C636.536 326.943 637.131 326.513 637.625 325.979C639.903 323.301 637.752 319.624 637.046 318.42C632.806 311.131 619.595 302.412 600.618 300.509C594.092 299.846 587.933 299.233 585.974 302.995C584.356 306.105 587.282 309.849 591.338 313.209C589.049 322.056 589.348 331.375 592.201 340.058C594.544 346.848 599.671 354.903 604.943 357.161C605.821 357.555 606.771 357.765 607.734 357.777C608.531 357.781 609.32 357.612 610.045 357.281C613.283 355.801 614.137 351.696 614.96 347.726C616.498 339.962 616.233 331.948 614.183 324.302C618.309 325.249 623.295 326.195 629.602 327.383C630.969 327.682 632.371 327.798 633.769 327.728V327.728Z" fill="black"/>
<path d="M584.992 371.579C581.79 371.211 579.549 372.849 576.883 373.615C574.285 374.509 571.636 375.245 568.949 375.82C558.046 378.042 546.785 377.823 535.976 375.18C530.463 373.904 525.094 372.068 519.954 369.701C519.11 369.311 518.147 369.261 517.267 369.561C516.386 369.861 515.655 370.489 515.224 371.314C514.794 372.139 514.697 373.097 514.955 373.992C515.212 374.886 515.804 375.646 516.607 376.116C527.407 382.503 539.524 386.338 552.032 387.326C558.365 387.778 564.73 387.46 570.986 386.379C574.12 385.833 577.218 385.099 580.264 384.181C583.241 383.139 586.54 382.642 588.732 379.826C589.288 379.111 589.644 378.26 589.763 377.361C589.882 376.462 589.76 375.548 589.409 374.712C589.058 373.877 588.491 373.149 587.765 372.605C587.04 372.061 586.184 371.72 585.283 371.617L584.992 371.579Z" fill="black"/>
</svg>
